PathFileType	4	(X/Y/Z)	c:/Users/goper/Files/vsCode/490R/osim_files/C08/C08_SSWS_05.trc
DataRate	CameraRate	NumFrames	NumMarkers	Units                	OrigDataRate	OrigDataStartFrame	OrigNumFrames
250.00	250.00	5	36	mm	250.0	889	3554
                Frame#	Time	LPSIS			LASIS			LTH1			LTH2			LTH3			LTH4			LLFE			LMFE			LSH1			LSH2			LSH3			LSH4			LLMAL			LMMAL			LCAL			LMTP5			LTOE			LMTP1			RPSIS			RASIS			RTH1			RTH2			RTH3			RTH4			RLFE			RMFE			RSH1			RSH2			RSH3			RSH4			RLMAL			RMMAL			RCAL			RMTP1			RTOE			RMTP5		
		X1	Y1	Z1	X2	Y2	Z2	X3	Y3	Z3	X4	Y4	Z4	X5	Y5	Z5	X6	Y6	Z6	X7	Y7	Z7	X8	Y8	Z8	X9	Y9	Z9	X10	Y10	Z10	X11	Y11	Z11	X12	Y12	Z12	X13	Y13	Z13	X14	Y14	Z14	X15	Y15	Z15	X16	Y16	Z16	X17	Y17	Z17	X18	Y18	Z18	X19	Y19	Z19	X20	Y20	Z20	X21	Y21	Z21	X22	Y22	Z22	X23	Y23	Z23	X24	Y24	Z24	X25	Y25	Z25	X26	Y26	Z26	X27	Y27	Z27	X28	Y28	Z28	X29	Y29	Z29	X30	Y30	Z30	X31	Y31	Z31	X32	Y32	Z32	X33	Y33	Z33	X34	Y34	Z34	X35	Y35	Z35	X36	Y36	Z36

889	3.55200	2073.46826	1062.71179	170.93533	1883.09094	1024.07581	269.03271	1902.02502	750.80670	350.34473	1874.81421	674.32202	340.43845	1853.72437	605.14508	340.06006	0.00000	0.00000	0.00000	1845.73584	558.19922	334.01645	1812.26562	548.05627	208.31139	1936.98340	493.35312	328.98187	1966.17749	459.76013	333.23395	1889.17847	459.21661	341.76666	0.00000	0.00000	0.00000	2117.74365	231.03577	267.93790	2080.17798	220.21916	186.15970	2174.06445	250.95425	202.64337	2072.32080	112.59119	310.11246	0.00000	0.00000	0.00000	0.00000	0.00000	0.00000	2068.55127	1062.34009	110.67074	1881.93616	1026.08752	29.78041	0.00000	0.00000	0.00000	1904.14600	736.32605	-31.56889	0.00000	0.00000	0.00000	0.00000	0.00000	0.00000	0.00000	0.00000	0.00000	1933.97839	530.49481	150.21889	1983.81177	451.67725	7.93381	1979.96790	405.71371	4.43310	0.00000	0.00000	0.00000	0.00000	0.00000	0.00000	0.00000	0.00000	0.00000	1975.41748	113.45658	159.41725	0.00000	0.00000	0.00000	1847.76062	51.88663	145.60291	1831.99683	69.85749	93.23286	1883.82898	53.13317	32.73745
890	3.55600	2069.31445	1062.99207	170.87877	1883.29822	1024.05835	267.77646	1895.65588	751.76965	350.47845	1867.92981	675.43732	340.50766	1847.19360	606.87128	340.63614	0.00000	0.00000	0.00000	1838.62842	559.82819	334.16177	0.00000	0.00000	0.00000	1928.94128	493.23029	328.89670	1957.19873	459.27966	333.18893	1879.62402	459.39154	340.87698	0.00000	0.00000	0.00000	2106.58838	228.75848	269.67380	2068.22583	217.49803	186.81424	2162.23218	246.42496	203.32640	2057.84058	110.49029	311.03815	0.00000	0.00000	0.00000	0.00000	0.00000	0.00000	2064.41284	1062.56396	110.60426	0.00000	0.00000	0.00000	1924.79846	760.48901	-26.82849	0.00000	0.00000	0.00000	0.00000	0.00000	0.00000	0.00000	0.00000	0.00000	0.00000	0.00000	0.00000	1932.80481	530.48602	150.11209	1982.98938	451.76968	7.88519	1979.54407	406.25583	4.33559	0.00000	0.00000	0.00000	0.00000	0.00000	0.00000	0.00000	0.00000	0.00000	1975.21863	113.53712	159.42003	0.00000	0.00000	0.00000	1847.76453	51.58994	145.75771	1832.62427	69.85209	92.77834	1883.77576	53.08985	32.70111
891	3.56000	2065.17603	1063.25635	170.85056	1878.97632	1024.63843	267.36096	1889.24280	752.69830	350.59167	1861.12903	676.52527	340.56900	1838.96582	607.70465	339.74268	0.00000	0.00000	0.00000	1831.03491	561.10522	333.87167	0.00000	0.00000	0.00000	1920.63159	492.78723	328.59030	1948.31323	458.77478	333.10220	1870.90613	459.83777	340.63202	0.00000	0.00000	0.00000	2092.97095	224.41217	269.13599	2056.02808	214.57707	187.50803	2150.38550	241.89250	204.09012	2043.07263	108.15440	311.93619	1981.86243	91.80815	263.80023	0.00000	0.00000	0.00000	2060.28516	1062.80493	110.54917	1874.13892	1025.95349	29.57437	1922.05701	760.50232	-26.81449	0.00000	0.00000	0.00000	0.00000	0.00000	0.00000	0.00000	0.00000	0.00000	0.00000	0.00000	0.00000	1931.57666	530.49493	150.02428	1982.30103	451.98209	7.90055	1978.56458	405.95218	4.40090	0.00000	0.00000	0.00000	1933.23914	401.24936	15.22566	0.00000	0.00000	0.00000	1975.02026	113.58010	159.43242	0.00000	0.00000	0.00000	1847.64807	51.79339	145.49892	1837.83997	68.49686	92.07583	1883.73145	53.03637	32.70631
892	3.56400	2061.05005	1063.49414	170.84880	1874.69885	1025.12427	266.94577	1882.93091	753.57703	350.71582	1854.43250	677.64838	340.66797	1831.62537	608.87122	339.50827	0.00000	0.00000	0.00000	1822.85217	562.00635	333.25021	0.00000	0.00000	0.00000	1912.52600	492.38483	328.35785	1939.42932	458.16272	333.05362	1862.29028	460.31390	340.37473	0.00000	0.00000	0.00000	2081.81812	222.17894	270.98053	2043.66431	211.62804	188.16269	2138.22900	237.07568	204.79791	2028.25452	105.88847	312.84363	1966.77527	90.86984	264.63095	0.00000	0.00000	0.00000	2056.17139	1063.00745	110.51421	1870.33374	1025.86768	29.53802	1919.32507	760.47754	-26.75971	0.00000	0.00000	0.00000	0.00000	0.00000	0.00000	0.00000	0.00000	0.00000	0.00000	0.00000	0.00000	1930.48914	530.55865	149.98164	1981.45850	452.07303	7.89581	1977.89282	406.08243	4.39214	0.00000	0.00000	0.00000	0.00000	0.00000	0.00000	2011.32080	112.40337	71.74834	1974.83655	113.64951	159.43814	0.00000	0.00000	0.00000	1847.61902	51.77072	145.46492	1837.78662	68.39014	92.03150	1883.63599	52.94329	32.62891
893	3.56800	2056.88184	1063.73560	170.88176	1870.31226	1025.61182	266.52240	1876.61694	754.44305	350.82175	1847.75928	678.70410	340.73059	1824.39905	610.04022	339.29343	0.00000	0.00000	0.00000	1815.43433	563.18561	332.98730	0.00000	0.00000	0.00000	1904.54944	491.97403	328.13467	1925.27930	449.30542	326.86682	1853.72876	460.74084	340.08911	1882.00537	424.40964	336.14319	2067.73218	217.38577	270.41049	2031.15283	208.58716	188.84500	2126.06763	232.24689	205.57280	2014.59058	103.38990	313.87283	1949.15845	90.26307	265.88165	0.00000	0.00000	0.00000	2052.05322	1063.20789	110.52496	1866.58899	1025.66602	29.41170	1916.61377	760.46625	-26.73900	0.00000	0.00000	0.00000	0.00000	0.00000	0.00000	0.00000	0.00000	0.00000	0.00000	0.00000	0.00000	1929.37219	530.57977	149.95346	1980.67932	452.23480	7.88571	1977.07214	406.18002	4.39152	0.00000	0.00000	0.00000	0.00000	0.00000	0.00000	2011.08374	112.41901	71.75863	1974.65491	113.68975	159.47118	0.00000	0.00000	0.00000	1847.27576	51.63756	145.53734	1837.71106	68.30023	91.95634	1883.54553	52.85439	32.57191
